<?xml version="1.0" encoding="UTF-8"?>
<svg id="_Слой_5" data-name="Слой 5" xmlns="http://www.w3.org/2000/svg" viewBox="0 0 1411 344">
  <defs>
    <style>
      .cls-1 {
        fill: #4d4d4d;
      }

      .cls-2 {
        fill: #399947;
      }

      .cls-3 {
        fill: #ff6a3f;
      }
    </style>
  </defs>
  <g>
    <g id="_Слой_5_копия_Обтравочный_контур" data-name="Слой 5 копия Обтравочный контур">
      <path class="cls-3" d="M465.031,2.032c-23.506,2.104-46.924,18.929-54.993,26.996,38.591,4.91,78.244,11.482,95.987,50.993,35.312,78.635-63.214,135.978-122.983,105.986,67.546,49.542,158.286,17.95,180.976-34.995C592.19,75.854,541.863-1.476,465.031,2.032Zm-188.975,136.982c8.136-58.552,47.823-99.112,112.985-106.986-61.518-54.162-203.858,.029-153.979,127.983,13.065-8.152,16.376-14.933,40.995-20.997Zm217.971,93.987c-19.662-.333-35.662,1-58.992-1-41.994-4.665-97.654-29.895-92.988-98.987,11.332-64.205,118.873-33.764,109.985,29.996,68.213-32.88,38.106-118.205-54.993-109.985-49.104,4.888-106.284,38.483-99.987,130.982,5.564,41.136,9.554,61.103,11.998,61.992,2-2.666,5.464-27.887,23.997-38.995,46.216,44.21,108.918,52.674,160.978,25.997Zm96.987-120.984c-2.224,44.478-20.296,86.015-42.994,106.986,3.919,13.602,3.39,30.681,2,45.994,69.928-5.856,103.581-103.34,40.995-152.979Zm-224.97,18.997c-.889,23.771,36.217,42.883,61.992,39.995,8.888-32.213-8.586-46.499-39.995-49.993-13.554-.444-21.553,5.111-21.997,9.999Zm-125.983,59.992c-27.355,44.987,8.338,98.702,56.992,97.987-15.841-60.033-17.3-45.187-23.82-124.988-15.328,8.432-25.794,14.868-33.172,27.001Zm95.987,50.993c-40.214,122.95,203.287,134.102,190.974-3-60.184,48.049-140.916,31.807-190.974,3Z"/>
    </g>
    <path class="cls-1" d="M2.706,280.505V57.967c0-9.124,3.125-16.685,9.374-22.684,6.249-5.996,13.67-8.996,22.263-8.996H116.362c11.717,0,23.303,2.057,34.761,6.167,11.455,4.11,21.707,10.112,30.757,18.006,9.047,7.894,16.371,17.713,21.97,29.455,5.596,11.741,8.397,25.247,8.397,40.513,0,15.781-2.215,29.802-6.64,42.062-4.428,12.26-10.774,22.599-19.041,31.011-8.269,8.416-18.131,14.903-29.586,19.468-11.458,4.565-24.347,6.847-38.667,6.847h-50.774v60.734c0,10.417-3.027,18.552-9.081,24.411-6.054,5.858-13.834,8.788-23.336,8.788-9.636,0-17.448-2.932-23.435-8.8-5.99-5.865-8.983-14.015-8.983-24.444Zm64.835-118.688h35.542c12.236,0,22.293-3.787,30.172-11.366,7.875-7.577,11.814-16.676,11.814-27.3,0-12.694-3.875-22.345-11.619-28.951-7.748-6.606-17.741-9.911-29.977-9.911h-35.933v77.528Z"/>
    <path class="cls-2" d="M1127.835,178.819c0-10.291,3.089-18.373,9.276-24.255,6.183-5.882,14.807-8.822,25.875-8.822h73.476V71.454c0-10.714,2.929-19.277,8.788-25.692s13.914-9.623,24.167-9.623,18.308,3.208,24.167,9.623,8.788,14.978,8.788,25.692v74.289h73.476c10.741,0,19.285,2.86,25.631,8.574,6.347,5.717,9.52,13.884,9.52,24.503,0,10.779-3.093,19.071-9.276,24.869-6.187,5.797-14.811,8.696-25.875,8.696h-73.476v74.209c0,10.741-2.891,19.327-8.666,25.753-5.779,6.431-13.876,9.642-24.289,9.642-10.741,0-18.918-3.173-24.533-9.52-5.614-6.347-8.422-14.971-8.422-25.875v-74.209h-73.476c-10.741,0-19.285-3.143-25.631-9.432-6.347-6.286-9.52-14.33-9.52-24.132Z"/>
  </g>
  <g>
    <path class="cls-1" d="M627.125,272.896c0-9.111,2.734-16.92,8.202-23.429,5.468-6.505,12.889-9.761,22.263-9.761,4.815,0,9.502,1.102,14.061,3.298,8.593,3.754,17.118,6.921,25.583,9.509,8.461,2.587,17.64,3.878,27.535,3.878,12.758,0,22.424-2.456,29-7.372,6.573-4.913,9.862-11.445,9.862-19.593,0-21.21-19.333-31.816-58-31.816-13.542,0-23.337-2.438-29.391-7.32-6.054-4.882-9.081-11.498-9.081-19.849,0-10.534,3.067-18.305,9.2-23.315,6.133-5.01,14.812-7.516,26.034-7.516,14.485,0,26.132-2.658,34.941-7.979,8.806-5.318,13.212-12.3,13.212-20.947,0-8.376-2.676-14.924-8.022-19.647-5.346-4.721-12.52-7.083-21.518-7.083-6.39,0-11.934,.9-16.627,2.694-4.696,1.794-9.129,3.79-13.304,5.984s-8.187,4.156-12.031,5.883c-3.848,1.73-8.053,2.594-12.618,2.594-8.217,0-14.933-2.89-20.151-8.669s-7.824-13.072-7.824-21.875c0-6.337,2.115-12.352,6.347-18.046,4.229-5.69,10.283-10.734,18.162-15.134,7.875-4.4,17.478-7.924,28.805-10.576,11.327-2.651,24.084-3.979,38.276-3.979,13.798,0,26.232,1.855,37.3,5.562,11.064,3.708,20.535,8.91,28.414,15.608,7.875,6.701,13.896,14.766,18.064,24.197,4.165,9.432,6.249,19.87,6.249,31.316,0,15.354-3.417,28.545-10.252,39.57s-17.023,19.358-30.562,25c18.616,5.029,32.253,12.889,40.913,23.587,8.657,10.698,12.986,25.134,12.986,43.308,0,14.226-2.67,26.886-8.006,37.98-5.34,11.095-12.792,20.429-22.36,27.996-9.569,7.57-21.027,13.377-34.371,17.423-13.347,4.047-28.155,6.069-44.428,6.069-11.458,0-22.979-1.016-34.565-3.045-11.589-2.032-22.003-5.041-31.246-9.038-9.246-3.994-16.731-8.971-22.458-14.934-5.73-5.959-8.593-12.804-8.593-20.532Z"/>
    <path class="cls-1" d="M842.33,289.772c0-6.384,1.007-13.06,3.027-20.029,2.017-6.969,4.199-13.518,6.542-19.642l69.522-186.822c4.815-12.767,10.967-22.699,18.455-29.799,7.485-7.101,17.216-10.652,29.195-10.652,11.455,0,20.927,3.552,28.414,10.652,7.486,7.101,13.637,17.033,18.455,29.799l69.521,186.822c2.344,6.384,4.522,12.932,6.543,19.642,2.017,6.71,3.027,13.387,3.027,20.029,0,8.146-2.865,14.609-8.594,19.395-5.73,4.784-13.215,7.177-22.457,7.177-9.896,0-17.253-2.78-22.068-8.34-4.817-5.56-8.854-13.38-12.107-23.468l-7.811-25.021h-106.432l-7.616,23.854c-4.037,12.673-8.66,21.336-13.865,25.992-5.208,4.653-12.044,6.981-20.505,6.981-9.374,0-16.926-2.359-22.653-7.079-5.73-4.718-8.593-11.217-8.593-19.492Zm92.371-90.601h67.959l-32.418-104.283h-.781l-34.76,104.283Z"/>
  </g>
</svg>